<?xml version="1.0" encoding="utf-8"?>
<!-- Generator: Adobe Illustrator 24.0.2, SVG Export Plug-In . SVG Version: 6.00 Build 0)  -->
<svg version="1.1" xmlns="http://www.w3.org/2000/svg" xmlns:xlink="http://www.w3.org/1999/xlink" x="0px" y="0px"
	 viewBox="0 0 338 190" style="enable-background:new 0 0 338 190;" xml:space="preserve">
<style type="text/css">
	.st0{display:none;}
	.st1{display:inline;fill:none;stroke:#333333;stroke-width:10;stroke-linecap:round;stroke-linejoin:round;stroke-miterlimit:10;}
	.st2{display:inline;fill:#333333;}
	.st3{fill:#FFFFFF;}
</style>
<g id="Layer_1" class="st0">
	<polyline class="st1" points="197.56,30.36 208,8.09 218.29,30.36 	"/>
	<polyline class="st1" points="218.29,30.36 228.73,8.09 239.03,30.36 328.06,30.36 	"/>
	<path class="st1" d="M108.56,103.72h26c22.09,0,40,16.42,40,36.68v0c0,20.26-17.91,36.68-40,36.68H9.26"/>
	<path class="st1" d="M134.56,103.72h-26c-22.09,0-40-16.42-40-36.68v0c0-20.26,17.91-36.68,40-36.68h89"/>
</g>
<g id="Layer_2" class="st0">
	<polyline class="st1" points="166.68,47.07 175.51,28.23 189.88,59.31 	"/>
	<polyline class="st1" points="189.88,59.31 210.06,16.25 259.32,121.36 331,121.36 	"/>
	<path class="st1" d="M91.4,109.12h21.99c18.69,0,33.83,13.89,33.83,31.02v0c0,17.13-15.15,31.02-33.83,31.02H7.41"/>
	<path class="st1" d="M113.4,109.12H91.4c-18.69,0-33.83-13.89-33.83-31.02v0c0-17.13,15.15-31.02,33.83-31.02h75.28"/>
</g>
<g id="Layer_3" class="st0">
	<path class="st2" d="M331,116.36h-68.5L214.59,14.13c-0.82-1.76-2.59-2.88-4.53-2.88s-3.7,1.12-4.53,2.88l-15.62,33.34l-9.86-21.33
		c-0.82-1.77-2.58-2.9-4.53-2.9c0,0-0.01,0-0.01,0c-1.94,0-3.7,1.12-4.53,2.88l-7.48,15.96H91.4c-21.41,0-38.83,16.16-38.83,36.02
		s17.42,36.02,38.83,36.02h21.99c15.9,0,28.83,11.67,28.83,26.02c0,14.35-12.94,26.03-28.83,26.03H7.41c-2.76,0-5,2.24-5,5
		s2.24,5,5,5H113.4c21.41,0,38.83-16.16,38.83-36.03s-17.42-36.02-38.83-36.02H91.4c-15.9,0-28.83-11.67-28.83-26.02
		S75.5,52.07,91.4,52.07h75.28c0.12,0,0.23-0.03,0.35-0.04c0.18-0.01,0.36-0.02,0.53-0.05c0.17-0.03,0.33-0.08,0.49-0.13
		c0.15-0.04,0.29-0.08,0.44-0.14c0.16-0.06,0.31-0.14,0.47-0.22c0.13-0.07,0.27-0.13,0.4-0.22c0.14-0.09,0.27-0.19,0.4-0.29
		c0.12-0.1,0.25-0.19,0.37-0.3c0.12-0.12,0.23-0.24,0.34-0.37c0.1-0.12,0.2-0.23,0.29-0.36c0.11-0.16,0.2-0.33,0.3-0.5
		c0.05-0.09,0.12-0.18,0.16-0.28l4.27-9.11l9.86,21.33c0.05,0.11,0.11,0.2,0.17,0.31c0.04,0.08,0.08,0.16,0.13,0.23
		c0.15,0.25,0.32,0.48,0.51,0.7c0.02,0.02,0.04,0.04,0.06,0.06c0.18,0.2,0.38,0.38,0.59,0.54c0.06,0.05,0.13,0.1,0.2,0.15
		c0.21,0.15,0.43,0.28,0.66,0.39c0.03,0.02,0.06,0.04,0.09,0.06c0.01,0.01,0.02,0.01,0.03,0.01c0.27,0.12,0.55,0.22,0.84,0.29
		c0.08,0.02,0.16,0.03,0.23,0.05c0.22,0.05,0.45,0.08,0.67,0.09c0.08,0.01,0.15,0.01,0.23,0.02c0.04,0,0.08,0.01,0.12,0.01
		c0.24,0,0.47-0.02,0.71-0.06c0.04-0.01,0.08-0.01,0.12-0.02c0.28-0.05,0.56-0.12,0.83-0.21c0.03-0.01,0.06-0.03,0.09-0.04
		c0.11-0.04,0.23-0.08,0.34-0.13c0.08-0.04,0.15-0.09,0.22-0.13c0.15-0.08,0.3-0.17,0.44-0.26c0.14-0.09,0.26-0.18,0.39-0.29
		c0.12-0.1,0.24-0.21,0.36-0.32c0.12-0.12,0.23-0.24,0.34-0.37c0.1-0.12,0.19-0.24,0.27-0.37c0.1-0.15,0.19-0.3,0.28-0.46
		c0.04-0.07,0.09-0.14,0.13-0.21l15.65-33.4l44.73,95.45c0.82,1.76,2.59,2.88,4.53,2.88H331c2.76,0,5-2.24,5-5
		S333.76,116.36,331,116.36z"/>
</g>
<g id="Layer_4">
	<path class="st3" d="M331,116.36h-68.5L214.59,14.13c-0.82-1.76-2.59-2.88-4.53-2.88s-3.7,1.12-4.53,2.88l-15.62,33.34l-9.86-21.33
		c-0.82-1.77-2.58-2.9-4.53-2.9c0,0-0.01,0-0.01,0c-1.94,0-3.7,1.12-4.53,2.88l-7.48,15.96H91.4c-21.41,0-38.83,16.16-38.83,36.02
		s17.42,36.02,38.83,36.02h21.99c15.9,0,28.83,11.67,28.83,26.02c0,14.35-12.94,26.03-28.83,26.03H7.41c-2.76,0-5,2.24-5,5
		s2.24,5,5,5H113.4c21.41,0,38.83-16.16,38.83-36.03s-17.42-36.02-38.83-36.02H91.4c-15.9,0-28.83-11.67-28.83-26.02
		S75.5,52.07,91.4,52.07h75.28c0.12,0,0.23-0.03,0.35-0.04c0.18-0.01,0.36-0.02,0.53-0.05c0.17-0.03,0.33-0.08,0.49-0.13
		c0.15-0.04,0.29-0.08,0.44-0.14c0.16-0.06,0.31-0.14,0.47-0.22c0.13-0.07,0.27-0.13,0.4-0.22c0.14-0.09,0.27-0.19,0.4-0.29
		c0.12-0.1,0.25-0.19,0.37-0.3c0.12-0.12,0.23-0.24,0.34-0.37c0.1-0.12,0.2-0.23,0.29-0.36c0.11-0.16,0.2-0.33,0.3-0.5
		c0.05-0.09,0.12-0.18,0.16-0.28l4.27-9.11l9.86,21.33c0.05,0.11,0.11,0.2,0.17,0.31c0.04,0.08,0.08,0.16,0.13,0.23
		c0.15,0.25,0.32,0.48,0.51,0.7c0.02,0.02,0.04,0.04,0.06,0.06c0.18,0.2,0.38,0.38,0.59,0.54c0.06,0.05,0.13,0.1,0.2,0.15
		c0.21,0.15,0.43,0.28,0.66,0.39c0.03,0.02,0.06,0.04,0.09,0.06c0.01,0.01,0.02,0.01,0.03,0.01c0.27,0.12,0.55,0.22,0.84,0.29
		c0.08,0.02,0.16,0.03,0.23,0.05c0.22,0.05,0.45,0.08,0.67,0.09c0.08,0.01,0.15,0.01,0.23,0.02c0.04,0,0.08,0.01,0.12,0.01
		c0.24,0,0.47-0.02,0.71-0.06c0.04-0.01,0.08-0.01,0.12-0.02c0.28-0.05,0.56-0.12,0.83-0.21c0.03-0.01,0.06-0.03,0.09-0.04
		c0.11-0.04,0.23-0.08,0.34-0.13c0.08-0.04,0.15-0.09,0.22-0.13c0.15-0.08,0.3-0.17,0.44-0.26c0.14-0.09,0.26-0.18,0.39-0.29
		c0.12-0.1,0.24-0.21,0.36-0.32c0.12-0.12,0.23-0.24,0.34-0.37c0.1-0.12,0.19-0.24,0.27-0.37c0.1-0.15,0.19-0.3,0.28-0.46
		c0.04-0.07,0.09-0.14,0.13-0.21l15.65-33.4l44.73,95.45c0.82,1.76,2.59,2.88,4.53,2.88H331c2.76,0,5-2.24,5-5
		S333.76,116.36,331,116.36z"/>
</g>
</svg>
