<?xml version="1.0" encoding="utf-8"?>
<!-- Generator: Adobe Illustrator 24.0.2, SVG Export Plug-In . SVG Version: 6.00 Build 0)  -->
<svg version="1.1" xmlns="http://www.w3.org/2000/svg" xmlns:xlink="http://www.w3.org/1999/xlink" x="0px" y="0px"
	 viewBox="0 0 420 180" style="enable-background:new 0 0 420 180;" xml:space="preserve">
<style type="text/css">
	.st0{display:none;}
	.st1{display:inline;fill:#333333;}
	.st2{display:inline;fill:none;stroke:#333333;stroke-width:6;stroke-linecap:round;stroke-linejoin:round;stroke-miterlimit:10;}
	.st3{fill:#333333;}
</style>
<g id="로고버전" class="st0">
	<path class="st1" d="M340.66,112.61h-68.5L224.25,10.38c-0.82-1.76-2.59-2.88-4.53-2.88s-3.7,1.12-4.53,2.88l-15.62,33.34
		l-9.86-21.33c-0.82-1.77-2.58-2.9-4.53-2.9c0,0-0.01,0-0.01,0c-1.94,0-3.7,1.12-4.53,2.88l-7.48,15.96h-72.1
		c-21.41,0-38.83,16.16-38.83,36.02s17.42,36.02,38.83,36.02h21.99c15.9,0,28.83,11.67,28.83,26.02c0,14.35-12.94,26.03-28.83,26.03
		H17.07c-2.76,0-5,2.24-5,5s2.24,5,5,5h105.98c21.41,0,38.83-16.16,38.83-36.03s-17.42-36.02-38.83-36.02h-21.99
		c-15.9,0-28.83-11.67-28.83-26.02s12.94-26.02,28.83-26.02h75.28c0.12,0,0.23-0.03,0.35-0.04c0.18-0.01,0.36-0.02,0.53-0.05
		c0.17-0.03,0.33-0.08,0.49-0.13c0.15-0.04,0.29-0.08,0.44-0.14c0.16-0.06,0.31-0.14,0.47-0.22c0.13-0.07,0.27-0.13,0.4-0.22
		c0.14-0.09,0.27-0.19,0.4-0.29c0.12-0.1,0.25-0.19,0.37-0.3c0.12-0.12,0.23-0.24,0.34-0.37c0.1-0.12,0.2-0.23,0.29-0.36
		c0.11-0.16,0.2-0.33,0.3-0.5c0.05-0.09,0.12-0.18,0.16-0.28l4.27-9.11L195,57.66c0.05,0.11,0.11,0.2,0.17,0.31
		c0.04,0.08,0.08,0.16,0.13,0.23c0.15,0.25,0.32,0.48,0.51,0.7c0.02,0.02,0.04,0.04,0.06,0.06c0.18,0.2,0.38,0.38,0.59,0.54
		c0.06,0.05,0.13,0.1,0.2,0.15c0.21,0.15,0.43,0.28,0.66,0.39c0.03,0.02,0.06,0.04,0.09,0.06c0.01,0.01,0.02,0.01,0.03,0.01
		c0.27,0.12,0.55,0.22,0.84,0.29c0.08,0.02,0.16,0.03,0.23,0.05c0.22,0.05,0.45,0.08,0.67,0.09c0.08,0.01,0.15,0.01,0.23,0.02
		c0.04,0,0.08,0.01,0.12,0.01c0.24,0,0.47-0.02,0.71-0.06c0.04-0.01,0.08-0.01,0.12-0.02c0.28-0.05,0.56-0.12,0.83-0.21
		c0.03-0.01,0.06-0.03,0.09-0.04c0.11-0.04,0.23-0.08,0.34-0.13c0.08-0.04,0.15-0.09,0.22-0.13c0.15-0.08,0.3-0.17,0.44-0.26
		c0.14-0.09,0.26-0.18,0.39-0.29c0.12-0.1,0.24-0.21,0.36-0.32c0.12-0.12,0.23-0.24,0.34-0.37c0.1-0.12,0.19-0.24,0.27-0.37
		c0.1-0.15,0.19-0.3,0.28-0.46c0.04-0.07,0.09-0.14,0.13-0.21l15.65-33.4l44.73,95.45c0.82,1.76,2.59,2.88,4.53,2.88h71.68
		c2.76,0,5-2.24,5-5S343.42,112.61,340.66,112.61z"/>
</g>
<g id="얇은버전" class="st0">
	<polyline class="st2" points="176.71,43.69 185.54,24.85 199.9,55.93 	"/>
	<polyline class="st2" points="199.9,55.93 220.08,12.87 269.34,117.98 341.02,117.98 	"/>
	<path class="st2" d="M101.43,105.73h21.99c18.69,0,33.83,13.89,33.83,31.02v0c0,17.13-15.15,31.02-33.83,31.02H17.44"/>
	<path class="st2" d="M123.42,105.73h-21.99c-18.69,0-33.83-13.89-33.83-31.02v0c0-17.13,15.15-31.02,33.83-31.02h75.28"/>
</g>
<g id="얇_x5F_아웃라인스트로크">
	<path class="st3" d="M332.02,114.98h-69.77L213.8,11.59c-0.49-1.05-1.55-1.73-2.72-1.73s-2.22,0.67-2.72,1.73l-17.45,37.23
		l-11.66-25.23c-0.49-1.06-1.55-1.74-2.72-1.74c0,0-0.01,0-0.01,0c-1.16,0-2.22,0.67-2.72,1.73l-8.02,17.11H92.43
		c-20.31,0-36.83,15.26-36.83,34.02c0,18.76,16.52,34.02,36.83,34.02h21.99c17,0,30.83,12.57,30.83,28.03s-13.83,28.02-30.83,28.02
		H8.44c-1.66,0-3,1.34-3,3s1.34,3,3,3h105.98c20.31,0,36.83-15.26,36.83-34.02c0-18.76-16.52-34.03-36.83-34.03H92.43
		c-17,0-30.83-12.57-30.83-28.02c0-15.45,13.83-28.02,30.83-28.02h75.28c0.07,0,0.13-0.02,0.19-0.02c0.12-0.01,0.23-0.01,0.35-0.03
		c0.09-0.02,0.18-0.04,0.27-0.07c0.1-0.03,0.19-0.05,0.29-0.09c0.09-0.04,0.17-0.08,0.26-0.12c0.09-0.04,0.18-0.09,0.26-0.14
		c0.08-0.05,0.15-0.11,0.22-0.16c0.08-0.06,0.16-0.12,0.23-0.19c0.07-0.07,0.13-0.14,0.19-0.21c0.06-0.07,0.13-0.14,0.18-0.22
		c0.07-0.09,0.12-0.19,0.17-0.29c0.03-0.06,0.07-0.11,0.1-0.17l6.09-13l11.66,25.23c0.03,0.07,0.07,0.13,0.1,0.19
		c0.02,0.05,0.05,0.09,0.07,0.13c0.09,0.15,0.2,0.29,0.31,0.42c0.01,0.01,0.02,0.02,0.02,0.02c0.11,0.12,0.24,0.23,0.37,0.33
		c0.04,0.03,0.08,0.06,0.11,0.08c0.13,0.09,0.26,0.17,0.4,0.24c0.02,0.01,0.03,0.02,0.05,0.03c0.01,0,0.01,0,0.02,0.01
		c0.16,0.08,0.33,0.13,0.51,0.18c0.04,0.01,0.09,0.02,0.13,0.03c0.14,0.03,0.28,0.05,0.42,0.06c0.04,0,0.08,0.01,0.13,0.01
		c0.03,0,0.05,0.01,0.08,0.01c0.07,0,0.13-0.02,0.2-0.02c0.11-0.01,0.23-0.02,0.34-0.04c0.09-0.02,0.17-0.04,0.26-0.07
		c0.11-0.03,0.23-0.07,0.34-0.11c0.04-0.02,0.08-0.02,0.12-0.04c0.05-0.02,0.09-0.06,0.14-0.08c0.09-0.05,0.18-0.1,0.26-0.15
		c0.08-0.06,0.16-0.11,0.24-0.18c0.07-0.06,0.14-0.12,0.21-0.19c0.07-0.07,0.14-0.15,0.21-0.23c0.06-0.07,0.11-0.14,0.16-0.22
		c0.06-0.09,0.12-0.18,0.17-0.28c0.02-0.04,0.05-0.08,0.08-0.13l17.46-37.26l46.54,99.31c0.49,1.05,1.55,1.73,2.72,1.73h71.68
		c1.66,0,3-1.34,3-3S333.68,114.98,332.02,114.98z"/>
</g>
<g id="텍스트">
	<g>
		<g>
			<path class="st3" d="M258.9,127.57h9.31c0.74,0,1.45,0.1,2.14,0.31c0.69,0.21,1.3,0.52,1.82,0.94c0.53,0.42,0.95,0.94,1.27,1.57
				s0.48,1.38,0.48,2.24c0,0.85-0.14,1.56-0.42,2.14c-0.28,0.58-0.66,1.06-1.15,1.44c-0.49,0.38-1.07,0.69-1.75,0.92
				c-0.68,0.23-1.41,0.44-2.2,0.61l-7.1,1.7v6.77h-2.4V127.57z M271.54,132.63c0-0.5-0.1-0.94-0.29-1.32
				c-0.19-0.38-0.46-0.71-0.79-0.97c-0.34-0.26-0.73-0.46-1.19-0.6s-0.96-0.2-1.5-0.2h-6.48v7.73l6.17-1.3
				c1.39-0.3,2.42-0.71,3.08-1.21C271.21,134.25,271.54,133.55,271.54,132.63z"/>
			<path class="st3" d="M276.56,136.86c0-1.5,0.25-2.86,0.76-4.08s1.19-2.24,2.05-3.08s1.86-1.49,3-1.94
				c1.14-0.46,2.34-0.68,3.62-0.68c1.3,0,2.52,0.23,3.66,0.68c1.14,0.46,2.14,1.1,3,1.94c0.86,0.84,1.54,1.87,2.04,3.08
				s0.76,2.58,0.76,4.08c0,1.52-0.25,2.89-0.76,4.1c-0.5,1.22-1.18,2.25-2.04,3.1c-0.86,0.85-1.86,1.5-3,1.96
				c-1.14,0.46-2.36,0.68-3.66,0.68c-1.28,0-2.49-0.23-3.62-0.68c-1.14-0.46-2.14-1.11-3-1.96c-0.86-0.85-1.55-1.88-2.05-3.1
				C276.81,139.75,276.56,138.38,276.56,136.86z M278.96,136.86c0,1.28,0.2,2.41,0.59,3.38c0.39,0.98,0.92,1.8,1.57,2.47
				c0.66,0.67,1.4,1.18,2.24,1.52c0.84,0.34,1.72,0.52,2.63,0.52s1.79-0.17,2.64-0.52c0.85-0.34,1.6-0.85,2.27-1.52
				c0.66-0.67,1.19-1.5,1.58-2.47c0.39-0.98,0.59-2.1,0.59-3.38c0-1.25-0.21-2.36-0.62-3.34s-0.96-1.8-1.63-2.46
				s-1.43-1.17-2.28-1.51c-0.85-0.34-1.7-0.52-2.54-0.52c-0.85,0-1.69,0.17-2.53,0.52c-0.84,0.34-1.59,0.85-2.26,1.51
				s-1.2,1.48-1.62,2.46S278.96,135.61,278.96,136.86z"/>
			<path class="st3" d="M298.57,127.57h9.31c0.74,0,1.45,0.1,2.14,0.31c0.69,0.21,1.3,0.52,1.82,0.94c0.53,0.42,0.95,0.94,1.27,1.57
				s0.48,1.38,0.48,2.24c0,0.71-0.1,1.31-0.29,1.82c-0.19,0.51-0.46,0.95-0.8,1.32c-0.34,0.37-0.76,0.68-1.25,0.92
				c-0.49,0.25-1.02,0.46-1.6,0.64l4.75,8.88h-2.52l-4.51-8.3l-6.41,1.54v6.77h-2.4V127.57z M311.22,132.63
				c0-0.5-0.1-0.94-0.29-1.32c-0.19-0.38-0.46-0.71-0.79-0.97c-0.34-0.26-0.73-0.46-1.19-0.6s-0.96-0.2-1.5-0.2h-6.48v7.73l6.17-1.3
				c1.39-0.3,2.42-0.71,3.08-1.21C310.88,134.25,311.22,133.55,311.22,132.63z"/>
			<path class="st3" d="M324.8,129.54v16.68h-2.4v-16.68h-6.55v-1.97h15.5v1.97H324.8z"/>
			<path class="st3" d="M346.78,135.71v1.97h-10.39v8.54h-2.4v-18.65h13.25v1.97h-10.85v6.17H346.78z"/>
			<path class="st3" d="M349.16,136.86c0-1.5,0.25-2.86,0.76-4.08s1.19-2.24,2.05-3.08s1.86-1.49,3-1.94
				c1.14-0.46,2.34-0.68,3.62-0.68c1.3,0,2.52,0.23,3.66,0.68c1.14,0.46,2.14,1.1,3,1.94c0.86,0.84,1.54,1.87,2.04,3.08
				s0.76,2.58,0.76,4.08c0,1.52-0.25,2.89-0.76,4.1c-0.5,1.22-1.18,2.25-2.04,3.1c-0.86,0.85-1.86,1.5-3,1.96
				c-1.14,0.46-2.36,0.68-3.66,0.68c-1.28,0-2.49-0.23-3.62-0.68c-1.14-0.46-2.14-1.11-3-1.96c-0.86-0.85-1.55-1.88-2.05-3.1
				C349.41,139.75,349.16,138.38,349.16,136.86z M351.56,136.86c0,1.28,0.2,2.41,0.59,3.38c0.39,0.98,0.92,1.8,1.57,2.47
				c0.66,0.67,1.4,1.18,2.24,1.52c0.84,0.34,1.72,0.52,2.63,0.52s1.79-0.17,2.64-0.52c0.85-0.34,1.6-0.85,2.27-1.52
				c0.66-0.67,1.19-1.5,1.58-2.47c0.39-0.98,0.59-2.1,0.59-3.38c0-1.25-0.21-2.36-0.62-3.34s-0.96-1.8-1.63-2.46
				s-1.43-1.17-2.28-1.51c-0.85-0.34-1.7-0.52-2.54-0.52c-0.85,0-1.69,0.17-2.53,0.52c-0.84,0.34-1.59,0.85-2.26,1.51
				s-1.2,1.48-1.62,2.46S351.56,135.61,351.56,136.86z"/>
			<path class="st3" d="M371.17,127.57h2.4v16.68h10.58v1.97h-12.98V127.57z"/>
			<path class="st3" d="M388.73,127.57v18.65h-2.4v-18.65H388.73z"/>
			<path class="st3" d="M391.85,136.86c0-1.5,0.25-2.86,0.76-4.08s1.19-2.24,2.05-3.08s1.86-1.49,3-1.94
				c1.14-0.46,2.34-0.68,3.62-0.68c1.3,0,2.52,0.23,3.66,0.68c1.14,0.46,2.14,1.1,3,1.94c0.86,0.84,1.54,1.87,2.04,3.08
				s0.76,2.58,0.76,4.08c0,1.52-0.25,2.89-0.76,4.1c-0.5,1.22-1.18,2.25-2.04,3.1c-0.86,0.85-1.86,1.5-3,1.96
				c-1.14,0.46-2.36,0.68-3.66,0.68c-1.28,0-2.49-0.23-3.62-0.68c-1.14-0.46-2.14-1.11-3-1.96c-0.86-0.85-1.55-1.88-2.05-3.1
				C392.11,139.75,391.85,138.38,391.85,136.86z M394.25,136.86c0,1.28,0.2,2.41,0.59,3.38c0.39,0.98,0.92,1.8,1.57,2.47
				c0.66,0.67,1.4,1.18,2.24,1.52c0.84,0.34,1.72,0.52,2.63,0.52s1.79-0.17,2.64-0.52c0.85-0.34,1.6-0.85,2.27-1.52
				c0.66-0.67,1.19-1.5,1.58-2.47c0.39-0.98,0.59-2.1,0.59-3.38c0-1.25-0.21-2.36-0.62-3.34s-0.96-1.8-1.63-2.46
				s-1.43-1.17-2.28-1.51c-0.85-0.34-1.7-0.52-2.54-0.52c-0.85,0-1.69,0.17-2.53,0.52c-0.84,0.34-1.59,0.85-2.26,1.51
				s-1.2,1.48-1.62,2.46S394.25,135.61,394.25,136.86z"/>
		</g>
	</g>
</g>
</svg>
